<svg width="1024" height="1024" viewBox="0 0 1024 1024" fill="none" xmlns="http://www.w3.org/2000/svg">
<defs><linearGradient id="macgiver-concept-background" x1="82" y1="82" x2="942" y2="942" gradientUnits="userSpaceOnUse"><stop stop-color="#070C1F"/><stop offset="1" stop-color="#174D9A"/></linearGradient></defs>
<rect width="1024" height="1024" fill="url(#macgiver-concept-background)"/>
<g transform="rotate(8 512 512)" fill="#48D2B3"><rect x="296" y="190" width="432" height="646" rx="118"/><rect x="452" y="124" width="120" height="98" rx="34"/></g>
<g transform="rotate(8 512 512)" fill="#12315D"><rect x="384" y="300" width="256" height="68" rx="34"/><rect x="384" y="410" width="256" height="68" rx="34"/><rect x="384" y="520" width="190" height="68" rx="34"/></g>
<g transform="rotate(-42 512 512)" fill="#FF9654"><rect x="212" y="455" width="438" height="114" rx="57"/><path d="M548 455C568 355 625 274 706 236C735 222 765 218 794 223L748 329C714 328 685 342 663 370L614 455H548Z"/><path d="M548 569C568 669 625 750 706 788C735 802 765 806 794 801L748 695C714 696 685 682 663 654L614 569H548Z"/><circle cx="238" cy="512" r="57"/></g>
</svg>
